<svg width="292" height="53" viewBox="0 0 292 53" fill="none" xmlns="http://www.w3.org/2000/svg">
<path d="M37.792 47V17.176L26.144 39.384H21.216L9.568 17.176V47H0.736V1.56H10.208L23.648 27.416L37.216 1.56H46.624V47H37.792ZM52.6 37.08C52.6 34.904 53.1973 33.0053 54.392 31.384C55.6293 29.72 57.336 28.44 59.512 27.544C61.688 26.648 64.184 26.2 67 26.2C68.408 26.2 69.8373 26.3067 71.288 26.52C72.7387 26.7333 73.9973 27.0747 75.064 27.544V25.752C75.064 23.6187 74.424 21.976 73.144 20.824C71.9067 19.672 70.0507 19.096 67.576 19.096C65.7413 19.096 63.992 19.416 62.328 20.056C60.664 20.696 58.9147 21.6347 57.08 22.872L54.328 17.24C56.5467 15.7893 58.808 14.7013 61.112 13.976C63.4587 13.2507 65.912 12.888 68.472 12.888C73.2507 12.888 76.9627 14.0827 79.608 16.472C82.296 18.8613 83.64 22.2747 83.64 26.712V37.4C83.64 38.296 83.7893 38.936 84.088 39.32C84.4293 39.704 84.9627 39.9387 85.688 40.024V47C84.92 47.128 84.216 47.2347 83.576 47.32C82.9787 47.4053 82.4667 47.448 82.04 47.448C80.3333 47.448 79.032 47.064 78.136 46.296C77.2827 45.528 76.7493 44.5893 76.536 43.48L76.344 41.752C74.8933 43.6293 73.08 45.08 70.904 46.104C68.728 47.128 66.5093 47.64 64.248 47.64C62.0293 47.64 60.024 47.192 58.232 46.296C56.4827 45.3573 55.096 44.0987 54.072 42.52C53.0907 40.8987 52.6 39.0853 52.6 37.08ZM73.464 38.808C73.9333 38.296 74.3173 37.784 74.616 37.272C74.9147 36.76 75.064 36.2907 75.064 35.864V32.472C74.04 32.0453 72.9307 31.7253 71.736 31.512C70.5413 31.256 69.4107 31.128 68.344 31.128C66.1253 31.128 64.2907 31.6187 62.84 32.6C61.432 33.5387 60.728 34.7973 60.728 36.376C60.728 37.2293 60.9627 38.04 61.432 38.808C61.9013 39.576 62.584 40.1947 63.48 40.664C64.376 41.1333 65.4427 41.368 66.68 41.368C67.96 41.368 69.2187 41.1333 70.456 40.664C71.6933 40.152 72.696 39.5333 73.464 38.808ZM91.654 47V13.464H100.23V47H91.654ZM91.654 8.792V0.279999H100.23V8.792H91.654ZM107.903 0.279999H116.479V36.248C116.479 37.784 116.735 38.8293 117.247 39.384C117.759 39.896 118.463 40.152 119.359 40.152C120.041 40.152 120.745 40.0667 121.471 39.896C122.196 39.7253 122.836 39.512 123.391 39.256L124.543 45.784C123.391 46.3387 122.047 46.7653 120.51 47.064C118.975 47.3627 117.588 47.512 116.351 47.512C113.663 47.512 111.572 46.808 110.079 45.4C108.628 43.9493 107.903 41.9013 107.903 39.256V0.279999Z" fill="#A3E635"/>
<path d="M126.615 37.4C126.615 35.3947 127.212 33.6667 128.407 32.216C129.602 30.7227 131.244 29.5707 133.335 28.76C135.426 27.9067 137.836 27.48 140.567 27.48C142.274 27.48 144.044 27.6293 145.879 27.928C147.714 28.2267 149.356 28.632 150.807 29.144V26.008C150.807 22.936 149.911 20.4827 148.119 18.648C146.37 16.8133 143.938 15.896 140.823 15.896C139.159 15.896 137.431 16.2373 135.639 16.92C133.847 17.6027 132.012 18.584 130.135 19.864L128.791 17.56C130.967 16.1093 133.058 15.0213 135.063 14.296C137.111 13.528 139.138 13.144 141.143 13.144C145.111 13.144 148.247 14.3173 150.551 16.664C152.855 19.0107 154.007 22.2107 154.007 26.264V42.776C154.007 43.288 154.114 43.672 154.327 43.928C154.583 44.184 154.946 44.3333 155.415 44.376V47C155.031 47.0427 154.711 47.064 154.455 47.064C154.199 47.064 153.986 47.064 153.815 47.064C153.004 46.936 152.364 46.5947 151.895 46.04C151.468 45.4853 151.234 44.8667 151.191 44.184V41.56C149.655 43.48 147.671 44.9733 145.239 46.04C142.85 47.1067 140.332 47.64 137.687 47.64C135.596 47.64 133.698 47.192 131.991 46.296C130.327 45.4 129.004 44.184 128.023 42.648C127.084 41.0693 126.615 39.32 126.615 37.4ZM149.527 40.152C149.954 39.5973 150.274 39.064 150.487 38.552C150.7 38.04 150.807 37.5707 150.807 37.144V31.64C149.271 31.0427 147.671 30.5947 146.007 30.296C144.343 29.9973 142.636 29.848 140.887 29.848C137.559 29.848 134.85 30.5093 132.759 31.832C130.711 33.1547 129.687 34.9467 129.687 37.208C129.687 38.616 130.05 39.9173 130.775 41.112C131.5 42.3067 132.503 43.2667 133.783 43.992C135.106 44.7173 136.62 45.08 138.327 45.08C140.716 45.08 142.914 44.632 144.919 43.736C146.967 42.7973 148.503 41.6027 149.527 40.152ZM179.294 47.64C176.691 47.64 174.259 46.9573 171.998 45.592C169.737 44.184 167.966 42.4347 166.686 40.344V47H163.742V0.279999H166.942V20.952C168.521 18.648 170.377 16.7707 172.51 15.32C174.686 13.8693 177.182 13.144 179.998 13.144C182.387 13.144 184.499 13.6347 186.334 14.616C188.211 15.5973 189.811 16.92 191.134 18.584C192.457 20.248 193.459 22.104 194.142 24.152C194.867 26.2 195.23 28.312 195.23 30.488C195.23 32.7493 194.825 34.9253 194.014 37.016C193.203 39.064 192.073 40.8987 190.622 42.52C189.171 44.0987 187.486 45.3573 185.566 46.296C183.646 47.192 181.555 47.64 179.294 47.64ZM178.654 44.76C180.617 44.76 182.409 44.376 184.03 43.608C185.651 42.7973 187.038 41.7093 188.19 40.344C189.385 38.9787 190.302 37.4427 190.942 35.736C191.625 34.0293 191.966 32.28 191.966 30.488C191.966 27.9707 191.433 25.624 190.366 23.448C189.299 21.2293 187.806 19.4373 185.886 18.072C183.966 16.7067 181.747 16.024 179.23 16.024C177.353 16.024 175.625 16.4507 174.046 17.304C172.467 18.1147 171.081 19.1813 169.886 20.504C168.734 21.8267 167.753 23.2773 166.942 24.856V35.864C167.113 37.1013 167.582 38.2747 168.35 39.384C169.118 40.4507 170.078 41.3893 171.23 42.2C172.425 42.968 173.662 43.5867 174.942 44.056C176.265 44.5253 177.502 44.76 178.654 44.76ZM203.186 0.279999H206.45V40.408C206.45 41.944 206.77 43.0107 207.41 43.608C208.05 44.1627 208.882 44.44 209.906 44.44C210.588 44.44 211.292 44.376 212.018 44.248C212.743 44.12 213.383 43.9493 213.938 43.736L214.578 46.36C213.852 46.616 212.956 46.8507 211.89 47.064C210.823 47.2773 209.906 47.384 209.138 47.384C207.346 47.384 205.895 46.8507 204.786 45.784C203.719 44.6747 203.186 43.2027 203.186 41.368V0.279999ZM233.636 47.64C231.289 47.64 229.113 47.192 227.108 46.296C225.103 45.3573 223.353 44.0987 221.86 42.52C220.409 40.8987 219.257 39.0427 218.404 36.952C217.593 34.8187 217.188 32.5787 217.188 30.232C217.188 27.0747 217.892 24.216 219.3 21.656C220.708 19.096 222.649 17.048 225.124 15.512C227.599 13.9333 230.372 13.144 233.444 13.144C236.601 13.144 239.396 13.9333 241.828 15.512C244.26 17.0907 246.18 19.1813 247.588 21.784C249.039 24.344 249.764 27.16 249.764 30.232C249.764 30.488 249.764 30.744 249.764 31C249.764 31.256 249.743 31.4693 249.7 31.64H220.516C220.687 34.1573 221.391 36.44 222.628 38.488C223.865 40.536 225.444 42.1573 227.364 43.352C229.327 44.504 231.46 45.08 233.764 45.08C236.068 45.08 238.244 44.4827 240.292 43.288C242.34 42.0933 243.769 40.5573 244.58 38.68L247.396 39.448C246.756 41.0267 245.732 42.4347 244.324 43.672C242.959 44.9093 241.337 45.8907 239.46 46.616C237.625 47.2987 235.684 47.64 233.636 47.64ZM220.388 29.144H246.692C246.521 26.5413 245.839 24.2373 244.644 22.232C243.449 20.2267 241.871 18.648 239.908 17.496C237.988 16.344 235.855 15.768 233.508 15.768C231.161 15.768 229.028 16.344 227.108 17.496C225.188 18.648 223.631 20.2267 222.436 22.232C221.241 24.2373 220.559 26.5413 220.388 29.144ZM253.421 47V44.96H254.477V47H253.421ZM264.023 47.24C262.951 47.24 261.991 46.96 261.143 46.4C260.311 45.824 259.639 45.128 259.127 44.312V52.112H257.927V34.52H259.031V37.016C259.543 36.216 260.223 35.568 261.071 35.072C261.919 34.56 262.815 34.304 263.759 34.304C264.639 34.304 265.439 34.488 266.159 34.856C266.879 35.208 267.503 35.696 268.031 36.32C268.575 36.928 268.991 37.616 269.279 38.384C269.583 39.152 269.735 39.952 269.735 40.784C269.735 41.936 269.495 43.008 269.015 44C268.535 44.976 267.863 45.76 266.999 46.352C266.151 46.944 265.159 47.24 264.023 47.24ZM263.735 46.16C264.471 46.16 265.127 46.008 265.703 45.704C266.295 45.4 266.799 44.992 267.215 44.48C267.631 43.968 267.951 43.392 268.175 42.752C268.399 42.112 268.511 41.456 268.511 40.784C268.511 40.064 268.383 39.384 268.127 38.744C267.871 38.088 267.511 37.512 267.047 37.016C266.599 36.52 266.071 36.128 265.463 35.84C264.871 35.536 264.223 35.384 263.519 35.384C263.087 35.384 262.623 35.472 262.127 35.648C261.647 35.824 261.183 36.072 260.735 36.392C260.303 36.712 259.943 37.08 259.655 37.496C259.367 37.896 259.191 38.312 259.127 38.744V42.848C259.415 43.456 259.783 44.016 260.231 44.528C260.695 45.024 261.231 45.424 261.839 45.728C262.447 46.016 263.079 46.16 263.735 46.16ZM278.526 35.6C277.406 35.632 276.422 35.968 275.574 36.608C274.742 37.232 274.158 38.096 273.822 39.2V47H272.622V34.52H273.774V37.592C274.206 36.712 274.782 36 275.502 35.456C276.222 34.896 276.982 34.576 277.782 34.496C277.942 34.48 278.086 34.472 278.214 34.472C278.342 34.472 278.446 34.472 278.526 34.472V35.6ZM285.542 47.24C284.662 47.24 283.846 47.072 283.094 46.736C282.358 46.4 281.718 45.936 281.174 45.344C280.63 44.736 280.206 44.04 279.902 43.256C279.598 42.472 279.446 41.648 279.446 40.784C279.446 39.904 279.598 39.08 279.902 38.312C280.206 37.528 280.63 36.84 281.174 36.248C281.734 35.64 282.382 35.168 283.118 34.832C283.87 34.48 284.678 34.304 285.542 34.304C286.406 34.304 287.206 34.48 287.942 34.832C288.678 35.168 289.326 35.64 289.886 36.248C290.446 36.84 290.878 37.528 291.182 38.312C291.486 39.08 291.638 39.904 291.638 40.784C291.638 41.648 291.486 42.472 291.182 43.256C290.878 44.04 290.446 44.736 289.886 45.344C289.342 45.936 288.694 46.4 287.942 46.736C287.206 47.072 286.406 47.24 285.542 47.24ZM280.646 40.832C280.646 41.808 280.862 42.704 281.294 43.52C281.742 44.32 282.334 44.96 283.07 45.44C283.806 45.92 284.622 46.16 285.518 46.16C286.414 46.16 287.23 45.92 287.966 45.44C288.718 44.944 289.31 44.288 289.742 43.472C290.19 42.64 290.414 41.736 290.414 40.76C290.414 39.784 290.19 38.888 289.742 38.072C289.31 37.256 288.718 36.608 287.966 36.128C287.23 35.632 286.422 35.384 285.542 35.384C284.646 35.384 283.83 35.632 283.094 36.128C282.358 36.624 281.766 37.28 281.318 38.096C280.87 38.912 280.646 39.824 280.646 40.832Z" fill="white"/>
</svg>
